<svg id="Layer_1" enable-background="new 0 0 512.002 512.002" viewBox="0 0 512.002 512.002" xmlns="http://www.w3.org/2000/svg"><g><g><path d="m482.002 392.001h-60.001v-136c0-5.523-4.478-10-10-10h-41.006c-3.987-19.562-19.431-35.007-38.993-38.994v-87.007h60c16.542 0 30-13.458 30-30v-60c0-16.542-13.458-30-30-30h-140.001c-16.542 0-29.999 13.458-29.999 30v60c0 16.542 13.457 30 29.999 30h60.001v87.007c-19.562 3.987-35.007 19.432-38.994 38.994h-73.008v-20c0-16.542-13.458-30-30-30h-24.997c-13.254.492-13.244 19.513 0 20h24.997c5.514 0 10 4.486 10 10v60c0 5.514-4.486 10-10 10h-140c-5.514 0-10-4.486-10-10v-60c0-5.514 4.486-10 10-10h25.003c13.254-.492 13.244-19.513 0-20h-25.003c-16.542 0-30 13.458-30 30v60c0 16.542 13.458 30 30 30h60v76h-60c-16.542 0-30 13.458-30 30v60c0 16.542 13.458 30 30 30h140c16.542 0 30-13.458 30-30v-20h112.002v20c0 16.542 13.457 30 29.999 30h140.001c16.542 0 30-13.458 30-30v-60c0-16.542-13.458-30-30-30zm-240-302.001v-60c0-5.514 4.485-10 9.999-10h140.001c5.514 0 10 4.486 10 10v60c0 5.514-4.486 10-10 10h-140.001c-5.514 0-9.999-4.486-9.999-10zm79.987 136.001c.009.001.017.001.026 0 16.535.007 29.986 13.462 29.986 30-1.509 39.745-58.497 39.733-59.999 0 0-16.538 13.451-29.993 29.987-30zm-141.989 256.001c0 5.514-4.486 10-10 10h-140c-5.514 0-10-4.486-10-10v-60c0-5.514 4.486-10 10-10h140c5.514 0 10 4.486 10 10zm20-40v-20c0-16.542-13.458-30-30-30h-60v-76h60c16.542 0 30-13.458 30-30v-20h73.008c11.587 53.008 86.42 52.972 97.987 0h31.006v126h-60c-16.542 0-29.999 13.458-29.999 30v20zm292.002 40c0 5.514-4.486 10-10 10h-140.001c-5.514 0-9.999-4.486-9.999-10v-60c0-5.514 4.485-10 9.999-10h140.001c5.514 0 10 4.486 10 10z"/><path d="m100 216.001h.007c5.522 0 9.996-4.477 9.996-10-.492-13.249-19.514-13.248-20.003 0 0 5.523 4.478 10 10 10z"/></g></g></svg>